# xmcd
#
# Track frame offsets:
#	150
#	16500
#	49210
#	64127
#	89770
#	121123
#	134295
#	162740
#	174885
#	213515
#	254980
#	264851
#
# Disc length: 3802 seconds
#
# Revision: 1
# Processed by: cddbd v1.5.2PL0 Copyright (c) Steve Scherf et al.
# Submitted via: audiograbber 1.83.01
#
DISCID=aa0ed80c
DTITLE=Ludwig van Beethove - Complete works of Ludwig van Beethoven (by am@do c
DTITLE=lassics) - CD 23
DYEAR=2007
DGENRE=Classical
TTITLE0=Sonata for piano no.11 OP.22 B Flat major - Allegro con brio
TTITLE1=Sonata for piano no.11 OP.22 B Flat major - Adagio con espressione
TTITLE2=Sonata for piano no.11 OP.22 B Flat major - Menuetto
TTITLE3=Sonata for piano no.11 OP.22 B Flat major - Rondo
TTITLE4=Sonata for piano no.12 OP.26 A Flat major - Andante con variationi
TTITLE5=Sonata for piano no.12 OP.26 A Flat major - Scherzo Allegro molto
TTITLE6=Sonata for piano no.12 OP.26 A Flat major - Marcia funebre
TTITLE7=Sonata for piano no.12 OP.26 A Flat major - Allegro
TTITLE8=Sonata for piano no.15 OP.28 D major(Pastorale) - Allegro
TTITLE9=Sonata for piano no.15 OP.28 D major(Pastorale) - Andante
TTITLE10=Sonata for piano no.15 OP.28 D major(Pastorale) - Scherzo Allegro viav
TTITLE10=ce
TTITLE11=Sonata for piano no.15 OP.28 D major(Pastorale) - Rondo Allegro ma non
TTITLE11=troppo
EXTD=
EXTT0=
EXTT1=
EXTT2=
EXTT3=
EXTT4=
EXTT5=
EXTT6=
EXTT7=
EXTT8=
EXTT9=
EXTT10=
EXTT11=
PLAYORDER=
